# xmcd
#
# Track frame offsets:
# 150
# 20272
# 46102
# 66225
#
# Disc length: 1189 seconds
#
# Revision: 0
# Processed by: cddbd v1.5.1PL2 Copyright (c) Steve Scherf et al.
# Submitted via: MacMP3 Pro 5.0 (http://mp3.act2.co.jp/)
#
DISCID=2904a304
DTITLE=ÂŸÏc≈@Û‡Ò¢ - No Regret
DYEAR=1900
DGENRE=
TTITLE0=No Regret
TTITLE1=Rain
TTITLE2=No Regret(karaoke)
TTITLE3=Rain(karaoke)
EXTD=
EXTT0=
EXTT1=
EXTT2=
EXTT3=
PLAYORDER=
